<svg xmlns="http://www.w3.org/2000/svg" width="801.575" height="647.182" viewBox="0 0 801.575 647.182">
  <g id="Group_6" data-name="Group 6" transform="translate(-231.222 -125)">
    <path id="Path_80" data-name="Path 80" d="M1001.142,124.77H760.527a51.15,51.15,0,0,0-49.9,39.9L589.051,703.938a41.34,41.34,0,0,0,38.294,50.382L874.7,766.507a54.615,54.615,0,0,0,56.43-44.828L1000.1,340.412l5.131,1.466,13.2-72.265-5.281-1.32,19.251-106.426a31.493,31.493,0,0,0-31.25-37.1Z" transform="translate(-0.099 0.231)" fill="#3f3d56"/>
    <path id="Path_81" data-name="Path 81" d="M792.2,136.395H764.116a35.349,35.349,0,0,0-34.536,27.813l-116.7,534.868A21.9,21.9,0,0,0,632.849,725.6L879.4,741.76a28.367,28.367,0,0,0,29.773-23.277l99.58-552.838a24.846,24.846,0,0,0-24.452-29.25H957.658a11.726,11.726,0,0,0-11.323,8.677h0a10.352,10.352,0,0,1-10,7.661H809.847A17.7,17.7,0,0,1,792.2,136.395Z" transform="translate(-0.099 0.231)" fill="#fff"/>
    <path id="Path_93" data-name="Path 93" d="M928.494,510.313a2,2,0,0,0,2.036-1.638l54.523-300.917a2.021,2.021,0,0,0-.417-1.632,1.962,1.962,0,0,0-1.5-.729l-248.059-2.93h-.023a1.988,1.988,0,0,0-1.925,1.562L668.853,495.179a2.021,2.021,0,0,0,.356,1.648,1.964,1.964,0,0,0,1.473.785Z" transform="translate(-0.099 0.231)" fill="#e6e6e6"/>
    <path id="Path_94" data-name="Path 94" d="M713.229,529.535a1,1,0,0,0-.973.773l-2.323,9.956a1,1,0,0,0,.9,1.225l131.23,9.327a1.009,1.009,0,0,0,1.053-.807l2.234-11.519a1,1,0,0,0-.922-1.188L713.29,529.537Z" transform="translate(-0.099 0.465)" fill="#a3a000"/>
    <path id="Path_95" data-name="Path 95" d="M872.666,587.808a1,1,0,0,0,1.051-.758l2.844-11.543a1,1,0,0,0-.9-1.237L708.072,562.549a.989.989,0,0,0-1.029.713l-2.955,9.975a1,1,0,0,0,.878,1.28Z" transform="translate(-0.099 0.454)" fill="#a3a000"/>
    <path id="Path_96" data-name="Path 96" d="M863.666,624.808a1,1,0,0,0,1.051-.758l2.844-11.543a1,1,0,0,0-.9-1.237L699.072,599.549a.989.989,0,0,0-1.029.713l-2.955,9.975a1,1,0,0,0,.878,1.28Z" transform="translate(-0.099 0.454)" fill="#a3a000"/>

    <path id="Path_97" data-name="Path 97" d="M786.481,688.283a.989.989,0,0,0,1.064-.754l6.013-24.051a1,1,0,0,0-.886-1.24l-102.916-8.656a1.018,1.018,0,0,0-1.06.779l-5.129,23.083a1,1,0,0,0,.883,1.213Z" transform="translate(-0.099 0.231)" fill="#a3a000"/>












  </g>
</svg>
